<svg xmlns="http://www.w3.org/2000/svg" width="500" height="500" viewBox="0 0 500 500">
<g>
<path d="M 266.33 384.15 C256.31,386.84 230.00,387.65 220.00,385.57 C179.90,377.22 147.23,348.51 134.42,310.37 C129.17,294.73 129.00,292.19 129.00,231.07 C129.00,177.63 129.12,173.86 131.00,166.41 C137.90,139.12 160.16,116.52 190.33,106.19 C213.49,98.27 237.13,98.12 260.12,105.75 L 268.50 108.53 L 268.74 145.52 C268.98,181.81 269.03,182.53 271.11,184.25 C273.04,185.85 276.43,186.00 309.61,186.00 L 346.00 186.00 L 346.00 212.00 L 229.95 212.00 L 230.22 197.75 L 230.50 183.50 L 239.82 183.21 C246.93,182.99 249.06,182.61 248.82,181.60 C248.64,180.87 240.00,171.55 229.62,160.89 L 210.74 141.50 L 191.37 161.47 C180.72,172.45 172.00,181.79 172.00,182.22 C172.00,182.65 176.27,183.00 181.50,183.00 L 191.00 183.00 L 191.00 231.86 C191.00,260.68 191.42,282.94 192.01,286.11 C195.09,302.45 209.62,318.06 226.43,323.11 C248.53,329.75 272.26,319.67 283.53,298.86 C291.36,284.40 299.45,279.00 313.29,279.00 C320.20,279.00 322.47,279.43 326.72,281.55 C341.95,289.14 348.21,307.82 340.69,323.21 C329.09,346.91 305.71,369.18 282.48,378.65 C277.90,380.51 270.64,382.99 266.33,384.15 ZM 339.88 174.71 L 342.50 176.93 L 311.45 176.96 C288.59,176.99 280.08,176.68 279.20,175.80 C277.74,174.34 277.45,118.63 278.90,119.17 C279.39,119.35 292.73,131.43 308.53,146.00 C324.33,160.57 338.44,173.50 339.88,174.71 Z" fill="rgb(1,35,99)"/>
<path d="M 229.95 212.00 L 230.00 212.00 L 230.00 253.10 C230.00,298.30 230.29,300.96 236.05,308.91 C239.56,313.76 245.74,318.44 250.83,320.09 C252.85,320.75 254.75,321.66 255.04,322.12 C255.24,322.42 255.80,322.44 256.62,322.23 C247.12,325.68 236.60,326.17 226.43,323.11 C209.62,318.06 195.09,302.45 192.01,286.11 C191.42,282.94 191.00,260.68 191.00,231.86 L 191.00 183.00 L 181.50 183.00 C176.27,183.00 172.00,182.65 172.00,182.22 C172.00,181.79 180.72,172.45 191.37,161.47 L 210.74 141.50 L 229.62 160.89 C240.00,171.55 248.64,180.87 248.82,181.60 C249.06,182.61 246.93,182.99 239.82,183.21 L 230.50 183.50 L 230.22 197.75 ZM 260.84 320.47 C264.90,318.38 270.15,314.90 273.57,311.74 C277.39,308.20 280.99,303.54 283.53,298.86 C278.23,308.64 270.18,316.05 260.84,320.47 Z" fill="rgb(253,212,48)"/>
<path d="M 0.00 250.00 L 0.00 0.00 L 250.00 0.00 L 500.00 0.00 L 500.00 250.00 L 500.00 500.00 L 250.00 500.00 L 0.00 500.00 L 0.00 250.00 ZM 266.33 384.15 C270.64,382.99 277.90,380.51 282.48,378.65 C305.71,369.18 329.09,346.91 340.69,323.21 C348.21,307.82 341.95,289.14 326.72,281.55 C322.47,279.43 320.20,279.00 313.29,279.00 C299.45,279.00 291.36,284.40 283.53,298.86 C280.99,303.54 277.39,308.20 273.57,311.74 C267.62,317.25 256.09,323.71 255.04,322.12 C254.75,321.66 252.85,320.75 250.83,320.09 C245.74,318.44 239.56,313.76 236.05,308.91 C230.29,300.96 230.00,298.30 230.00,253.10 L 230.00 212.00 L 288.00 212.00 L 346.00 212.00 L 346.00 199.00 L 346.00 186.00 L 309.61 186.00 C276.43,186.00 273.04,185.85 271.11,184.25 C269.03,182.53 268.98,181.81 268.74,145.52 L 268.50 108.53 L 260.12 105.75 C237.13,98.12 213.49,98.27 190.33,106.19 C160.16,116.52 137.90,139.12 131.00,166.41 C129.12,173.86 129.00,177.63 129.00,231.07 C129.00,292.19 129.17,294.73 134.42,310.37 C147.23,348.51 179.90,377.22 220.00,385.57 C230.00,387.65 256.31,386.84 266.33,384.15 ZM 339.88 174.71 C338.44,173.50 324.33,160.57 308.53,146.00 C292.73,131.43 279.39,119.35 278.90,119.17 C277.45,118.63 277.74,174.34 279.20,175.80 C280.08,176.68 288.59,176.99 311.45,176.96 L 342.50 176.93 L 339.88 174.71 Z" fill="rgb(254,254,254)"/>
</g>
</svg>