<svg xmlns="http://www.w3.org/2000/svg" width="298" height="305" viewBox="0 0 298 305">
<g>
<path d="M 178.48 293.62 C166.21,296.85 143.10,297.81 131.33,295.58 C108.41,291.23 88.16,280.16 71.47,262.86 C55.14,245.92 46.15,229.02 41.53,206.55 C40.13,199.73 39.90,190.43 39.91,141.38 L 39.91 140.61 C39.92,90.98 39.92,80.05 43.45,70.40 C44.46,67.62 45.77,64.95 47.46,61.50 C68.72,17.91 127.07,-1.92 176.25,17.72 L 180.00 19.22 L 180.00 92.89 L 182.22 94.44 C184.13,95.78 189.51,96.00 220.72,96.00 L 257.00 96.00 L 257.00 122.00 L 141.00 122.00 L 141.00 93.07 L 151.20 92.78 L 161.40 92.50 L 141.26 72.00 L 121.11 51.50 L 101.21 72.00 L 81.30 92.50 L 91.15 92.78 L 101.00 93.07 L 101.02 137.28 C101.03,161.60 101.46,185.55 101.98,190.50 C105.67,225.61 143.40,245.78 174.43,229.23 C181.45,225.48 190.89,215.74 194.91,208.10 C199.34,199.69 203.97,194.69 210.26,191.56 C214.57,189.41 216.77,189.00 224.00,189.00 C234.24,189.00 240.58,191.58 246.55,198.18 C252.42,204.68 254.47,210.20 254.49,219.56 C254.50,226.99 254.20,228.21 250.63,235.06 C235.66,263.83 208.76,285.66 178.48,293.62 ZM 221.24 57.71 L 252.98 87.00 L 222.11 87.00 C197.18,87.00 191.03,86.74 190.11,85.63 C189.30,84.66 189.05,76.10 189.23,56.34 L 189.50 28.41 Z" fill="rgb(0,35,102)" data-index="0" style="opacity: 1;"></path>
<path d="M 141.00 93.07 L 141.00 122.00 L 140.92 122.00 L 141.21 165.25 C141.50,207.99 141.53,208.56 143.80,213.50 C146.99,220.41 154.50,227.20 162.12,230.05 L 167.81 232.17 C138.28,242.88 105.41,223.15 101.98,190.50 C101.46,185.55 101.03,161.60 101.02,137.28 L 101.00 93.07 L 91.15 92.78 L 81.30 92.50 L 101.21 72.00 L 121.11 51.50 L 141.26 72.00 L 161.40 92.50 L 151.20 92.78 ZM 172.10 230.39 L 173.90 229.46 C176.96,227.88 180.37,225.31 183.61,222.28 C180.50,225.22 177.26,227.71 174.43,229.23 C173.65,229.64 172.88,230.03 172.10,230.39 Z" fill="rgb(254,212,44)" data-index="1"></path>

</g>
</svg>